<svg xmlns="http://www.w3.org/2000/svg" viewBox="0 0 720 520" role="img" aria-labelledby="t"><title id="t">Комната питомца меняется после покупок</title><defs><linearGradient id="bg" x1="0" y1="0" x2="1" y2="1"><stop stop-color="#B7E7FF"/><stop offset=".52" stop-color="#B7F1D4"/><stop offset="1" stop-color="#FFF3A6"/></linearGradient><filter id="s"><feDropShadow dx="0" dy="13" stdDeviation="12" flood-color="#254b42" flood-opacity=".16"/></filter></defs><rect width="720" height="520" rx="48" fill="url(#bg)"/><path d="M0 393h720v127H0Z" fill="#F5E5D0"/><path d="M0 393h720" stroke="#E1C9AC" stroke-width="6"/><rect x="54" y="77" width="612" height="300" rx="38" fill="#FFF9EF" filter="url(#s)"/><rect x="86" y="112" width="176" height="132" rx="24" fill="#80D2FF"/><circle cx="119" cy="145" r="18" fill="#FFE16C"/><path d="M86 211c38-27 72-21 99-8 30 15 51 13 77-6v47H86Z" fill="#59B38A"/><rect x="409" y="131" width="174" height="92" rx="28" fill="#FF8A72"/><rect x="437" y="111" width="118" height="50" rx="21" fill="#FFA28D"/><rect x="337" y="117" width="22" height="123" rx="11" fill="#2E6656"/><path d="M348 112c-28-53-67-59-84-29 33 9 58 27 76 53m9-22c28-56 69-66 89-35-34 12-61 30-79 58" fill="#3BAE75"/><rect x="312" y="235" width="80" height="86" rx="24" fill="#F0CE9B"/><rect x="590" y="107" width="30" height="170" rx="15" fill="#2E6656"/><path d="M546 109h118l-17-48h-84Z" fill="#FFD85D"/><circle cx="605" cy="285" r="22" fill="#FFD64E"/><circle cx="559" cy="307" r="18" fill="#FFD64E"/><g filter="url(#s)"><path d="M196 330c0-59 31-102 71-102s71 43 71 102c0 48-31 82-71 82s-71-34-71-82Z" fill="#7767FF"/><ellipse cx="246" cy="306" rx="11" ry="15" fill="#203047"/><ellipse cx="289" cy="306" rx="11" ry="15" fill="#203047"/><path d="M255 338c8 8 17 8 25 0" fill="none" stroke="#203047" stroke-width="6" stroke-linecap="round"/></g><rect x="101" y="303" width="84" height="64" rx="20" fill="#FFB34F"/><circle cx="143" cy="335" r="22" fill="#FF6E62"/><path d="M130 334h26M143 321v26" stroke="#fff" stroke-width="6" stroke-linecap="round"/><rect x="421" y="274" width="128" height="90" rx="26" fill="#C59BFF"/><path d="M438 319c22-31 76-31 96 0" fill="none" stroke="#fff" stroke-width="9" stroke-linecap="round"/><g fill="#fff" opacity=".92"><path d="M75 278l6 14 14 6-14 6-6 14-6-14-14-6 14-6Z"/><circle cx="652" cy="333" r="8"/></g></svg>