<svg xmlns="http://www.w3.org/2000/svg" viewBox="0 0 512 512">
  <defs>
    <linearGradient id="c" x1="0" y1="0" x2="0" y2="1"><stop stop-color="#FFF0D8"/><stop offset="1" stop-color="#E8C7A2"/></linearGradient>
    <linearGradient id="o" x1="0" y1="0" x2="0" y2="1"><stop stop-color="#F7A24B"/><stop offset="1" stop-color="#D9792E"/></linearGradient>
    <linearGradient id="g" x1="0" y1="0" x2="1" y2="1"><stop stop-color="#99A96D"/><stop offset="1" stop-color="#657546"/></linearGradient>
    <filter id="s"><feDropShadow dx="0" dy="12" stdDeviation="10" flood-color="#6B4936" flood-opacity=".18"/></filter>
  </defs>
  <g filter="url(#s)">
    <rect x="74" y="109" width="120" height="280" rx="32" fill="url(#c)" transform="rotate(-12 134 249)"/>
    <g fill="#EC8E3E"><rect x="105" y="150" width="18" height="170" rx="9"/><rect x="133" y="146" width="18" height="176" rx="9"/><rect x="161" y="142" width="18" height="180" rx="9"/></g>
    <g transform="translate(227 98)">
      <rect x="58" y="0" width="116" height="245" rx="54" fill="url(#c)"/>
      <rect x="79" y="27" width="74" height="139" rx="34" fill="#E88737"/>
      <g fill="#FFF4DF"><circle cx="97" cy="53" r="9"/><circle cx="128" cy="49" r="9"/><circle cx="143" cy="76" r="9"/><circle cx="109" cy="79" r="9"/><circle cx="93" cy="104" r="9"/><circle cx="127" cy="111" r="9"/><circle cx="145" cy="136" r="9"/><circle cx="109" cy="143" r="9"/></g>
      <rect x="96" y="169" width="40" height="106" rx="20" fill="url(#g)"/>
    </g>
    <g transform="translate(138 207) rotate(8)">
      <path d="M0 0h20l85 96-18 18L0 29Z" fill="#E9E3DC"/>
      <path d="M156 0h20v29l-87 85-18-18Z" fill="#F4F0EC"/>
      <circle cx="87" cy="99" r="22" fill="#E58132"/>
      <path d="M49 120c-42 17-49 93-4 113 38 17 69-29 47-59l-22-30 29-22-12-23-38 21Zm10 75c-12 0-22-10-22-22s10-22 22-22 22 10 22 22-10 22-22 22Zm105-75 38 21-22 30c-22 30 9 76 47 59 45-20 38-96-4-113l-38-21-12 23 29 22-22 30c-7 10-21 13-31 6-10-7-13-21-6-31l21-29Z" fill="url(#o)"/>
    </g>
    <g transform="translate(57 333)">
      <rect x="0" y="28" width="104" height="86" rx="28" fill="#FFF2DE"/>
      <rect x="22" y="0" width="60" height="42" rx="18" fill="url(#g)"/>
      <rect x="39" y="-18" width="28" height="27" rx="10" fill="#73864F"/>
    </g>
  </g>
</svg>